name ./resultDataOpenSim/trcMotMarkerGrf/sub09/grf-13-04.mot
datacolumns 19
datarows 12
range 0.51200000 0.55600000
endheader

                time	     ground_force_vx	     ground_force_vy	     ground_force_vz	     ground_force_px	     ground_force_py	     ground_force_pz	   l_ground_force_vx	   l_ground_force_vy	   l_ground_force_vz	   l_ground_force_px	   l_ground_force_py	   l_ground_force_pz	     ground_torque_x	     ground_torque_y	     ground_torque_z	   l_ground_torque_x	   l_ground_torque_y	   l_ground_torque_z	
          0.51200000	         58.95618889	        536.81088318	        -25.11243080	         -0.64524403	          0.00000000	          0.03603537	          0.00000000	          0.00000000	          0.00000000	          0.00000000	          0.00000000	          0.00000000	          0.00000000	          5.85959334	          0.00000000	          0.00000000	          0.00000000	          0.00000000	
          0.51600000	         60.85885867	        548.47703631	        -28.39293579	         -0.64335215	          0.00000000	          0.03678860	          0.00000000	          0.00000000	          0.00000000	          0.00000000	          0.00000000	          0.00000000	          0.00000000	          5.71749419	          0.00000000	          0.00000000	          0.00000000	          0.00000000	
          0.52000000	         62.78547884	        559.67539665	        -32.03040805	         -0.64135783	          0.00000000	          0.03749167	          0.00000000	          0.00000000	          0.00000000	          0.00000000	          0.00000000	          0.00000000	          0.00000000	          5.43773776	          0.00000000	          0.00000000	          0.00000000	          0.00000000	
          0.52400000	         64.71599117	        570.39052725	        -35.69344591	         -0.63912977	          0.00000000	          0.03812272	          0.00000000	          0.00000000	          0.00000000	          0.00000000	          0.00000000	          0.00000000	          0.00000000	          5.06633442	          0.00000000	          0.00000000	          0.00000000	          0.00000000	
          0.52800000	         66.62463839	        580.78421662	        -39.02151320	         -0.63668403	          0.00000000	          0.03865301	          0.00000000	          0.00000000	          0.00000000	          0.00000000	          0.00000000	          0.00000000	          0.00000000	          4.66055965	          0.00000000	          0.00000000	          0.00000000	          0.00000000	
          0.53200000	         68.51295428	        591.24310706	        -41.69353710	         -0.63422883	          0.00000000	          0.03904006	          0.00000000	          0.00000000	          0.00000000	          0.00000000	          0.00000000	          0.00000000	          0.00000000	          4.27803991	          0.00000000	          0.00000000	          0.00000000	          0.00000000	
          0.53600000	         70.39770984	        602.16206249	        -43.49290951	         -0.63197014	          0.00000000	          0.03925124	          0.00000000	          0.00000000	          0.00000000	          0.00000000	          0.00000000	          0.00000000	          0.00000000	          3.96600533	          0.00000000	          0.00000000	          0.00000000	          0.00000000	
          0.54000000	         72.30033608	        613.68518315	        -44.33062113	         -0.62991623	          0.00000000	          0.03928152	          0.00000000	          0.00000000	          0.00000000	          0.00000000	          0.00000000	          0.00000000	          0.00000000	          3.75344665	          0.00000000	          0.00000000	          0.00000000	          0.00000000	
          0.54400000	         74.26304910	        625.69935695	        -44.20760135	         -0.62794286	          0.00000000	          0.03914341	          0.00000000	          0.00000000	          0.00000000	          0.00000000	          0.00000000	          0.00000000	          0.00000000	          3.64803029	          0.00000000	          0.00000000	          0.00000000	          0.00000000	
          0.54800000	         76.37250552	        638.04504148	        -43.16659522	         -0.62599575	          0.00000000	          0.03884328	          0.00000000	          0.00000000	          0.00000000	          0.00000000	          0.00000000	          0.00000000	          0.00000000	          3.63797182	          0.00000000	          0.00000000	          0.00000000	          0.00000000	
          0.55200000	         78.75168109	        650.65224797	        -41.29155483	         -0.62415615	          0.00000000	          0.03837775	          0.00000000	          0.00000000	          0.00000000	          0.00000000	          0.00000000	          0.00000000	          0.00000000	          3.69765351	          0.00000000	          0.00000000	          0.00000000	          0.00000000	
          0.55600000	         81.51777810	        663.44387394	        -38.73931127	         -0.62252989	          0.00000000	          0.03775473	          0.00000000	          0.00000000	          0.00000000	          0.00000000	          0.00000000	          0.00000000	          0.00000000	          3.79524245	          0.00000000	          0.00000000	          0.00000000	          0.00000000	
